<svg width="64" height="64" viewBox="0 0 64 64" fill="none" xmlns="http://www.w3.org/2000/svg">
<rect width="64" height="64" rx="14" fill="#151515"/>
<rect x="8.75" y="8.75" width="46.5" height="46.5" rx="11.25" fill="#F8F7F2" stroke="#E2DDCF" stroke-width="1.5"/>
<path d="M20 47V17h16.8C44.2 17 49 21.1 49 27.5c0 4.8-2.6 8.2-7.1 9.7L50 47h-9.5l-7.1-8.8H28V47h-8Zm8-15.8h8c3.1 0 5-1.4 5-3.8 0-2.3-1.9-3.7-5-3.7h-8v7.5Z" fill="#151515"/>
<path d="M41 47 52.5 17H61L49.4 47H41Z" fill="#2F5F5A"/>
<path d="M13 52h18c3.6 0 6.9-1.7 9-4.6l3.5-4.9" stroke="#D5674B" stroke-width="3" stroke-linecap="round"/>
<circle cx="51" cy="14" r="3.5" fill="#D5674B"/>
<circle cx="14" cy="52" r="3.5" fill="#2F5F5A"/>
</svg>
